<svg width="555" height="555" viewBox="0 0 555 555" fill="none" xmlns="http://www.w3.org/2000/svg">
<path d="M277.88 554.786C230.89 554.786 187.675 544.087 148.237 522.69C108.799 501.292 76.4931 472.763 51.3198 437.1V504.439H0.973145V353.399H152.013V403.746H89.7091C109.848 433.954 136.385 458.288 169.32 476.748C202.255 495.209 238.442 504.439 277.88 504.439C309.346 504.439 338.82 498.46 366.301 486.503C393.782 474.546 417.697 458.393 438.045 438.044C458.394 417.696 474.546 393.781 486.504 366.3C498.461 338.819 504.44 309.346 504.44 277.879H554.786C554.786 316.059 547.549 351.931 533.074 385.495C518.6 419.06 498.776 448.428 473.602 473.602C448.429 498.775 419.06 518.599 385.496 533.074C351.931 547.548 316.059 554.786 277.88 554.786ZM255.224 454.092V421.367C235.505 416.752 219.457 408.256 207.08 395.879C194.703 383.502 185.578 367.244 179.704 347.106L221.24 330.743C226.274 347.945 234.141 360.846 244.84 369.447C255.538 378.048 267.81 382.348 281.656 382.348C295.501 382.348 307.354 379.097 317.213 372.594C327.073 366.091 332.002 355.916 332.002 342.071C332.002 329.904 326.863 320.044 316.584 312.492C306.305 304.94 287.949 296.34 261.517 286.69C236.763 277.879 218.618 267.39 207.08 255.223C195.542 243.056 189.773 227.113 189.773 207.394C189.773 190.192 195.752 174.564 207.709 160.508C219.666 146.453 235.924 137.328 256.482 133.132V101.666H300.536V133.132C315.64 134.391 329.38 140.475 341.757 151.383C354.134 162.292 362.63 175.088 367.245 189.772L326.968 206.135C323.611 196.485 318.157 188.409 310.605 181.906C303.053 175.403 292.564 172.151 279.138 172.151C264.454 172.151 253.231 175.298 245.469 181.591C237.707 187.884 233.826 196.485 233.826 207.394C233.826 218.302 238.651 226.903 248.301 233.196C257.951 239.49 275.362 246.832 300.536 255.223C330.744 266.132 350.882 278.928 360.952 293.612C371.021 308.297 376.056 324.45 376.056 342.071C376.056 354.238 373.958 364.937 369.762 374.167C365.567 383.397 360.008 391.264 353.085 397.767C346.162 404.27 338.086 409.515 328.856 413.5C319.626 417.486 309.766 420.528 299.277 422.626V454.092H255.224ZM0.973145 277.879C0.973145 239.7 8.21048 203.828 22.6851 170.263C37.1598 136.699 56.9838 107.33 82.1571 82.1564C107.33 56.9831 136.699 37.1591 170.264 22.6844C203.828 8.20975 239.7 0.972412 277.88 0.972412C324.87 0.972412 368.084 11.6711 407.522 33.0684C446.961 54.4657 479.266 82.9955 504.44 118.658V51.3191H554.786V202.359H403.746V152.012H466.05C445.912 121.804 419.375 97.4702 386.44 79.0097C353.505 60.5493 317.318 51.3191 277.88 51.3191C246.413 51.3191 216.939 57.2977 189.458 69.2551C161.978 81.2124 138.063 97.3653 117.714 117.714C97.366 138.062 81.2131 161.977 69.2558 189.458C57.2985 216.939 51.3198 246.412 51.3198 277.879H0.973145Z" fill="#6A80EA"/>
</svg>
